<?xml version="1.0" encoding="UTF-8" standalone="no"?>
<!-- Created with Inkscape (http://www.inkscape.org/) -->

<svg
   width="170mm"
   height="170mm"
   viewBox="0 0 170 170"
   version="1.1"
   id="svg1"
   inkscape:version="1.4.2 (1:1.4.2+202505120737+ebf0e940d0)"
   sodipodi:docname="drawing.svg"
   xmlns:inkscape="http://www.inkscape.org/namespaces/inkscape"
   xmlns:sodipodi="http://sodipodi.sourceforge.net/DTD/sodipodi-0.dtd"
   xmlns="http://www.w3.org/2000/svg"
   xmlns:svg="http://www.w3.org/2000/svg">
  <sodipodi:namedview
     id="namedview1"
     pagecolor="#ffffff"
     bordercolor="#000000"
     borderopacity="0.25"
     inkscape:showpageshadow="2"
     inkscape:pageopacity="0.0"
     inkscape:pagecheckerboard="0"
     inkscape:deskcolor="#d1d1d1"
     inkscape:document-units="mm"
     inkscape:zoom="0.84398396"
     inkscape:cx="315.17187"
     inkscape:cy="350.12514"
     inkscape:window-width="1600"
     inkscape:window-height="831"
     inkscape:window-x="0"
     inkscape:window-y="0"
     inkscape:window-maximized="1"
     inkscape:current-layer="layer1" />
  <defs
     id="defs1" />
  <g
     inkscape:label="Layer 1"
     inkscape:groupmode="layer"
     id="layer1"
     transform="translate(-24.0233,-50.163456)">
    <rect
       style="fill:#ececec;fill-opacity:1;stroke-width:0;stroke-linejoin:round"
       id="rect20"
       width="170"
       height="170"
       x="24.0233"
       y="50.163456" />
    <g
       id="g3-0-1-3-6"
       transform="translate(91.215896,128.52032)" />
    <g
       id="g20"
       transform="translate(4.0233002,7.141325)">
      <rect
         style="fill:#f27c7c;fill-opacity:1;stroke-width:0;stroke-linejoin:round"
         id="rect1"
         width="25"
         height="25"
         x="24.0233"
         y="51.417431" />
      <text
         xml:space="preserve"
         style="font-size:3.52777px;line-height:1.3;font-family:Arial;-inkscape-font-specification:Arial;text-align:center;writing-mode:lr-tb;direction:ltr;text-anchor:middle;fill:#008080;stroke-width:0;stroke-linejoin:round"
         x="36.47937"
         y="62.539051"
         id="text1"><tspan
           sodipodi:role="line"
           id="tspan1"
           style="fill:#1a1a1a;stroke-width:0"
           x="36.47937"
           y="62.539051">user</tspan><tspan
           sodipodi:role="line"
           style="fill:#1a1a1a;stroke-width:0"
           x="36.47937"
           y="67.125153"
           id="tspan2">prompt</tspan></text>
      <rect
         style="fill:#9797f6;fill-opacity:1;stroke-width:0;stroke-linejoin:round"
         id="rect1-3"
         width="25"
         height="25"
         x="69.760811"
         y="51.417431" />
      <text
         xml:space="preserve"
         style="font-size:3.52777px;line-height:1.3;font-family:Arial;-inkscape-font-specification:Arial;text-align:center;writing-mode:lr-tb;direction:ltr;text-anchor:middle;fill:#008080;stroke-width:0;stroke-linejoin:round"
         x="82.178131"
         y="65.159386"
         id="text1-5"><tspan
           sodipodi:role="line"
           style="fill:#1a1a1a;stroke-width:0"
           x="82.178131"
           y="65.159386"
           id="tspan2-2">orchestrator</tspan></text>
      <rect
         style="fill:#79ffff;fill-opacity:1;stroke-width:0;stroke-linejoin:round"
         id="rect1-3-4"
         width="25"
         height="25"
         x="117.11265"
         y="51.022182" />
      <text
         xml:space="preserve"
         style="font-size:3.52777px;line-height:1.3;font-family:Arial;-inkscape-font-specification:Arial;text-align:center;writing-mode:lr-tb;direction:ltr;text-anchor:middle;fill:#008080;stroke-width:0;stroke-linejoin:round"
         x="129.62386"
         y="55.591934"
         id="text1-5-7"><tspan
           sodipodi:role="line"
           style="fill:#1a1a1a;stroke-width:0"
           x="129.62386"
           y="55.591934"
           id="tspan2-2-8">Author's</tspan><tspan
           sodipodi:role="line"
           style="fill:#1a1a1a;stroke-width:0"
           x="129.62386"
           y="60.178036"
           id="tspan18">pre-cleared</tspan><tspan
           sodipodi:role="line"
           style="fill:#1a1a1a;stroke-width:0"
           x="129.62386"
           y="64.764137"
           id="tspan9">copyright</tspan><tspan
           sodipodi:role="line"
           style="fill:#1a1a1a;stroke-width:0"
           x="129.62386"
           y="69.350235"
           id="tspan7">vector</tspan><tspan
           sodipodi:role="line"
           style="fill:#1a1a1a;stroke-width:0"
           x="129.62386"
           y="73.93634"
           id="tspan8">database</tspan></text>
      <rect
         style="fill:#6cffb8;fill-opacity:1;stroke-width:0;stroke-linejoin:round"
         id="rect1-3-4-8"
         width="25"
         height="25"
         x="117.11265"
         y="180.02208" />
      <text
         xml:space="preserve"
         style="font-size:3.52777px;line-height:1.3;font-family:Arial;-inkscape-font-specification:Arial;text-align:center;writing-mode:lr-tb;direction:ltr;text-anchor:middle;fill:#008080;stroke-width:0;stroke-linejoin:round"
         x="129.62386"
         y="186.70847"
         id="text1-5-7-5"><tspan
           sodipodi:role="line"
           style="fill:#1a1a1a;stroke-width:0"
           x="129.62386"
           y="186.70847"
           id="tspan18-4">pre-cleared</tspan><tspan
           sodipodi:role="line"
           style="fill:#1a1a1a;stroke-width:0"
           x="129.62386"
           y="191.29457"
           id="tspan9-1">copyright</tspan><tspan
           sodipodi:role="line"
           style="fill:#1a1a1a;stroke-width:0"
           x="129.62386"
           y="195.88066"
           id="tspan7-8">vector</tspan><tspan
           sodipodi:role="line"
           style="fill:#1a1a1a;stroke-width:0"
           x="129.62386"
           y="200.46677"
           id="tspan8-5">databases</tspan></text>
      <rect
         style="fill:#ffae2f;fill-opacity:1;stroke-width:0;stroke-linejoin:round"
         id="rect1-3-4-07"
         width="25"
         height="25"
         x="117.11265"
         y="137.01181" />
      <text
         xml:space="preserve"
         style="font-size:3.52777px;line-height:1.3;font-family:Arial;-inkscape-font-specification:Arial;text-align:center;writing-mode:lr-tb;direction:ltr;text-anchor:middle;fill:#008080;stroke-width:0;stroke-linejoin:round"
         x="129.62556"
         y="146.16766"
         id="text1-5-7-8"><tspan
           sodipodi:role="line"
           style="fill:#1a1a1a;stroke-width:0"
           x="129.62556"
           y="146.16766"
           id="tspan8-4">derivative</tspan><tspan
           sodipodi:role="line"
           style="fill:#1a1a1a;stroke-width:0"
           x="129.62556"
           y="150.75377"
           id="tspan15">works</tspan><tspan
           sodipodi:role="line"
           style="fill:#1a1a1a;stroke-width:0"
           x="129.62556"
           y="155.33986"
           id="tspan16">checker</tspan><tspan
           sodipodi:role="line"
           style="fill:#1a1a1a;stroke-width:0"
           x="129.62556"
           y="159.92596"
           id="tspan14" /></text>
      <rect
         style="fill:#faff57;fill-opacity:1;stroke-width:0;stroke-linejoin:round"
         id="rect1-3-4-0"
         width="25"
         height="25"
         x="117.11265"
         y="94.016991" />
      <text
         xml:space="preserve"
         style="font-size:3.52777px;line-height:1.3;font-family:Arial;-inkscape-font-specification:Arial;text-align:center;writing-mode:lr-tb;direction:ltr;text-anchor:middle;fill:#008080;stroke-width:0;stroke-linejoin:round"
         x="129.61696"
         y="107.77962"
         id="text1-5-7-6"><tspan
           sodipodi:role="line"
           style="fill:#1a1a1a;stroke-width:0"
           x="129.61696"
           y="107.77962"
           id="tspan8-6">LLM</tspan></text>
      <rect
         style="fill:#9797f6;fill-opacity:1;stroke-width:0;stroke-linejoin:round"
         id="rect1-3-9"
         width="25"
         height="25"
         x="69.760818"
         y="94.016991" />
      <text
         xml:space="preserve"
         style="font-size:3.52777px;line-height:1.3;font-family:Arial;-inkscape-font-specification:Arial;text-align:center;writing-mode:lr-tb;direction:ltr;text-anchor:middle;fill:#008080;stroke-width:0;stroke-linejoin:round"
         x="82.178139"
         y="107.75895"
         id="text1-5-3"><tspan
           sodipodi:role="line"
           style="fill:#1a1a1a;stroke-width:0"
           x="82.178139"
           y="107.75895"
           id="tspan2-2-6">orchestrator</tspan></text>
      <rect
         style="fill:#9797f6;fill-opacity:1;stroke-width:0;stroke-linejoin:round"
         id="rect1-3-9-8"
         width="25"
         height="25"
         x="69.760818"
         y="136.95618" />
      <text
         xml:space="preserve"
         style="font-size:3.52777px;line-height:1.3;font-family:Arial;-inkscape-font-specification:Arial;text-align:center;writing-mode:lr-tb;direction:ltr;text-anchor:middle;fill:#008080;stroke-width:0;stroke-linejoin:round"
         x="82.178139"
         y="150.69814"
         id="text1-5-3-7"><tspan
           sodipodi:role="line"
           style="fill:#1a1a1a;stroke-width:0"
           x="82.178139"
           y="150.69814"
           id="tspan2-2-6-9">orchestrator</tspan></text>
      <rect
         style="fill:#9797f6;fill-opacity:1;stroke-width:0;stroke-linejoin:round"
         id="rect1-3-9-8-9"
         width="25"
         height="25"
         x="69.817398"
         y="179.93776" />
      <text
         xml:space="preserve"
         style="font-size:3.52777px;line-height:1.3;font-family:Arial;-inkscape-font-specification:Arial;text-align:center;writing-mode:lr-tb;direction:ltr;text-anchor:middle;fill:#008080;stroke-width:0;stroke-linejoin:round"
         x="82.234718"
         y="193.6797"
         id="text1-5-3-7-0"><tspan
           sodipodi:role="line"
           style="fill:#1a1a1a;stroke-width:0"
           x="82.234718"
           y="193.6797"
           id="tspan2-2-6-9-8">orchestrator</tspan></text>
      <rect
         style="fill:#f27c7c;fill-opacity:1;stroke-width:0;stroke-linejoin:round"
         id="rect1-3-9-8-9-3"
         width="25"
         height="25"
         x="160.9767"
         y="179.93776" />
      <text
         xml:space="preserve"
         style="font-size:3.52777px;line-height:1.3;font-family:Arial;-inkscape-font-specification:Arial;text-align:center;writing-mode:lr-tb;direction:ltr;text-anchor:middle;fill:#008080;stroke-width:0;stroke-linejoin:round"
         x="173.43279"
         y="191.05937"
         id="text1-5-3-7-0-1"><tspan
           sodipodi:role="line"
           style="fill:#1a1a1a;stroke-width:0"
           x="173.43279"
           y="191.05937"
           id="tspan2-2-6-9-8-7">user</tspan><tspan
           sodipodi:role="line"
           style="fill:#1a1a1a;stroke-width:0"
           x="173.43279"
           y="195.64548"
           id="tspan19">prompt</tspan></text>
      <path
         style="fill:#1a1a1a;stroke-width:0;stroke-linejoin:round"
         id="path6"
         d="m 50.0337,63.159161 c 0.3252,0.190881 0.64223,0.396412 0.97559,0.572643 0.11332,0.05991 0.49549,0.115668 0.58699,0.125894 0.58119,0.06495 1.16359,0.02923 1.74594,0.0066 2.06026,-0.120859 4.12133,-0.228055 6.1807,-0.36395 1.4603,-0.09824 2.92144,-0.189355 4.38546,-0.18609 0.50607,-0.01323 1.00806,0.05022 1.51023,0.100111 0.17399,0.01307 0.0867,0.01172 0.2619,0.0039 0,0 -0.80576,-0.583512 -0.80576,-0.583512 v 0 c -0.16915,-0.0024 -0.0842,0.0019 -0.25482,-0.01297 -0.5,-0.05031 -1.00111,-0.09604 -1.50447,-0.08352 -1.45962,0.007 -2.91605,0.103891 -4.37186,0.203686 -2.06208,0.138015 -4.12596,0.247293 -6.18987,0.353574 -0.58187,0.01759 -1.16544,0.05021 -1.74451,-0.03178 -0.11577,-0.01638 -0.23079,-0.0396 -0.34376,-0.06976 -0.0795,-0.02122 -0.29832,-0.132691 -0.23205,-0.08397 0.22621,0.166309 0.47843,0.293981 0.71764,0.440971 z" />
      <path
         style="fill:#1a1a1a;stroke-width:0;stroke-linejoin:round"
         id="path7"
         d="m 62.29033,60.745859 c 0.004,0.200327 0.11111,0.354285 0.28678,0.451885 1.11214,0.617886 0.79741,0.486732 1.56423,0.747884 1.02452,0.343874 2.06639,0.628925 3.11231,0.898747 0.11914,0.03405 0.23995,0.06271 0.35741,0.102153 0.1549,0.05202 1.32245,0.577453 -0.42764,-0.280045 -0.0264,-0.01294 0.051,0.04333 0.0499,0.07272 -0.001,0.03353 -0.0303,0.06175 -0.0555,0.08399 -0.10158,0.0899 -0.21428,0.166386 -0.32142,0.249576 -0.98109,0.649703 -1.9894,1.255273 -2.96193,1.918007 0,0 0.82427,0.526216 0.82427,0.526216 v 0 c 0.97045,-0.670478 1.97767,-1.282348 2.96947,-1.920332 0.098,-0.07684 0.40209,-0.248417 0.44741,-0.436838 0.0108,-0.04496 0.0117,-0.109947 -0.0264,-0.136181 -0.55934,-0.38535 -1.01344,-0.625972 -1.63517,-0.776155 -1.04564,-0.268007 -2.08588,-0.556802 -3.10792,-0.905711 -0.67711,-0.240922 -0.44728,-0.196633 0.13517,0.21694 0.0518,0.03679 -0.11452,-0.05631 -0.16644,-0.09296 -0.0661,-0.04667 -0.11826,-0.106449 -0.14426,-0.183462 -0.009,-0.02661 -0.008,-0.05565 -0.0114,-0.08348 z" />
      <path
         style="fill:#1a1a1a;stroke-width:0;stroke-linejoin:round"
         id="path6-6"
         d="m 96.40832,63.945168 c 0.3252,0.190881 0.64223,0.396412 0.97559,0.572643 0.11332,0.05991 0.49549,0.115668 0.58699,0.125894 0.58119,0.06495 1.16359,0.02923 1.74594,0.0066 2.06026,-0.120859 4.12133,-0.228055 6.1807,-0.36395 1.4603,-0.09824 2.92144,-0.189355 4.38546,-0.18609 0.50607,-0.01323 1.00806,0.05022 1.51023,0.100111 0.17399,0.01307 0.0867,0.01172 0.2619,0.0039 0,0 -0.80576,-0.583512 -0.80576,-0.583512 v 0 c -0.16915,-0.0024 -0.0842,0.0019 -0.25482,-0.01297 -0.5,-0.05031 -1.00111,-0.09604 -1.50447,-0.08352 -1.45962,0.007 -2.91605,0.103891 -4.37186,0.203686 -2.06208,0.138015 -4.12596,0.247293 -6.18987,0.353574 -0.58187,0.01759 -1.16544,0.05021 -1.74451,-0.03178 -0.11577,-0.01638 -0.23079,-0.0396 -0.34376,-0.06976 -0.0795,-0.02122 -0.29832,-0.132691 -0.23205,-0.08397 0.22621,0.166309 0.47843,0.293981 0.71764,0.440971 z" />
      <path
         style="fill:#1a1a1a;stroke-width:0;stroke-linejoin:round"
         id="path7-1"
         d="m 108.66495,61.531866 c 0.004,0.200327 0.11111,0.354285 0.28678,0.451885 1.11214,0.617886 0.79741,0.486732 1.56423,0.747884 1.02452,0.343874 2.06639,0.628925 3.11231,0.898747 0.11914,0.03405 0.23995,0.06271 0.35741,0.102153 0.1549,0.05202 1.32245,0.577453 -0.42764,-0.280045 -0.0264,-0.01294 0.051,0.04333 0.0499,0.07272 -0.001,0.03353 -0.0303,0.06175 -0.0555,0.08399 -0.10158,0.0899 -0.21428,0.166386 -0.32142,0.249576 -0.98109,0.649703 -1.9894,1.255273 -2.96193,1.918007 0,0 0.82427,0.526216 0.82427,0.526216 v 0 c 0.97045,-0.670478 1.97767,-1.282348 2.96947,-1.920332 0.098,-0.07684 0.40209,-0.248417 0.44741,-0.436838 0.0108,-0.04496 0.0117,-0.109947 -0.0264,-0.136181 -0.55934,-0.38535 -1.01344,-0.625972 -1.63517,-0.776155 -1.04564,-0.268007 -2.08588,-0.556802 -3.10792,-0.905711 -0.67711,-0.240922 -0.44728,-0.196633 0.13517,0.21694 0.0518,0.03679 -0.11452,-0.05631 -0.16644,-0.09296 -0.0661,-0.04667 -0.11826,-0.106449 -0.14426,-0.183462 -0.009,-0.02661 -0.008,-0.05565 -0.0114,-0.08348 z" />
      <path
         style="fill:#1a1a1a;stroke-width:0;stroke-linejoin:round"
         id="path6-6-5"
         d="m 96.88254,106.54473 c 0.3252,0.19088 0.64223,0.39641 0.97559,0.57264 0.11332,0.0599 0.49549,0.11567 0.58699,0.12589 0.58119,0.0649 1.16359,0.0292 1.74594,0.007 2.06026,-0.12086 4.12133,-0.22805 6.1807,-0.36395 1.4603,-0.0982 2.92144,-0.18935 4.38546,-0.18609 0.50607,-0.0132 1.00806,0.0502 1.51023,0.10011 0.17399,0.0131 0.0867,0.0117 0.2619,0.004 0,0 -0.80576,-0.58351 -0.80576,-0.58351 v 0 c -0.16915,-0.002 -0.0842,0.002 -0.25482,-0.013 -0.5,-0.0503 -1.00111,-0.096 -1.50447,-0.0835 -1.45962,0.007 -2.91605,0.10389 -4.37186,0.20369 -2.06208,0.13801 -4.12596,0.24729 -6.18987,0.35357 -0.58187,0.0176 -1.16544,0.0502 -1.74451,-0.0318 -0.11577,-0.0164 -0.23079,-0.0396 -0.34376,-0.0698 -0.0795,-0.0212 -0.29832,-0.13269 -0.23205,-0.084 0.22621,0.16631 0.47843,0.29398 0.71764,0.44097 z" />
      <path
         style="fill:#1a1a1a;stroke-width:0;stroke-linejoin:round"
         id="path7-1-2"
         d="m 109.13917,104.13142 c 0.004,0.20033 0.11111,0.35429 0.28678,0.45189 1.11214,0.61788 0.79741,0.48673 1.56423,0.74788 1.02452,0.34388 2.06639,0.62893 3.11231,0.89875 0.11914,0.0341 0.23995,0.0627 0.35741,0.10215 0.1549,0.052 1.32245,0.57746 -0.42764,-0.28004 -0.0264,-0.0129 0.051,0.0433 0.0499,0.0727 -0.001,0.0335 -0.0303,0.0618 -0.0555,0.084 -0.10158,0.0899 -0.21428,0.16638 -0.32142,0.24957 -0.98109,0.64971 -1.9894,1.25528 -2.96193,1.91801 0,0 0.82427,0.52622 0.82427,0.52622 v 0 c 0.97045,-0.67048 1.97767,-1.28235 2.96947,-1.92034 0.098,-0.0768 0.40209,-0.24841 0.44741,-0.43683 0.0108,-0.045 0.0117,-0.10995 -0.0264,-0.13618 -0.55934,-0.38535 -1.01344,-0.62598 -1.63517,-0.77616 -1.04564,-0.26801 -2.08588,-0.5568 -3.10792,-0.90571 -0.67711,-0.24092 -0.44728,-0.19663 0.13517,0.21694 0.0518,0.0368 -0.11452,-0.0563 -0.16644,-0.093 -0.0661,-0.0467 -0.11826,-0.10645 -0.14426,-0.18346 -0.009,-0.0266 -0.008,-0.0556 -0.0114,-0.0835 z" />
      <path
         style="fill:#1a1a1a;stroke-width:0;stroke-linejoin:round"
         id="path6-6-6"
         d="m 113.24799,78.162485 c -0.095,0.364924 -0.17381,0.734431 -0.28492,1.094766 -0.0378,0.122492 -0.26858,0.432154 -0.32605,0.504085 -0.36503,0.45689 -0.80211,0.843451 -1.2299,1.239233 -1.54228,1.371364 -3.07547,2.752961 -4.62776,4.113064 -1.10206,0.963121 -2.19967,1.931875 -3.23258,2.969403 -0.3672,0.34849 -0.67729,0.748317 -0.9971,1.138683 -0.11379,0.132271 -0.053,0.06959 -0.18243,0.187949 0,0 0.15715,-0.982364 0.15715,-0.982364 v 0 c 0.11791,-0.121304 0.0609,-0.0582 0.17101,-0.189356 0.31798,-0.389128 0.63998,-0.775802 1.00477,-1.122879 1.03705,-1.027157 2.13542,-1.988496 3.2354,-2.947344 1.5557,-1.360519 3.09235,-2.742632 4.62691,-4.126884 0.42388,-0.399006 0.85959,-0.788587 1.21108,-1.256027 0.0703,-0.09344 0.13519,-0.191195 0.19375,-0.292403 0.0412,-0.07122 0.11712,-0.304771 0.10471,-0.22346 -0.0424,0.277553 -0.13043,0.546177 -0.19564,0.819262 z" />
      <path
         style="fill:#1a1a1a;stroke-width:0;stroke-linejoin:round"
         id="path7-1-5"
         d="m 102.87479,85.122769 c 0.13882,0.144481 0.17195,0.329084 0.11674,0.522315 -0.34949,1.223313 -0.21968,0.908026 -0.57724,1.634912 -0.48129,0.9676 -1.01644,1.905875 -1.56523,2.836245 -0.0602,0.108322 -0.12532,0.214013 -0.18049,0.32496 -0.0727,0.146315 -0.52679,1.343435 0.10437,-0.500409 0.01,-0.02782 -0.005,0.0667 0.0161,0.08671 0.0244,0.023 0.0651,0.02224 0.0986,0.02014 0.13539,-0.0083 0.26917,-0.03387 0.40375,-0.0508 1.15315,-0.234326 2.29433,-0.519106 3.45064,-0.738165 0,0 -0.21076,0.954938 -0.21076,0.954938 v 0 c -1.16031,0.212112 -2.30518,0.491667 -3.45761,0.741852 -0.12363,0.01496 -0.45998,0.108664 -0.62526,0.0075 -0.0394,-0.02415 -0.086,-0.06947 -0.0776,-0.114962 0.12303,-0.667997 0.27399,-1.15924 0.60742,-1.705065 0.54987,-0.928888 1.08122,-1.868658 1.5572,-2.838065 0.30843,-0.649147 0.17723,-0.455315 0.0578,0.248979 -0.0106,0.06264 0.0412,-0.120795 0.052,-0.183423 0.0137,-0.07974 0.008,-0.158894 -0.0277,-0.231735 -0.0125,-0.02518 -0.0337,-0.04501 -0.051,-0.06709 z" />
      <path
         style="fill:#1a1a1a;stroke-width:0;stroke-linejoin:round"
         id="path6-6-6-0"
         d="m 113.69389,121.34473 c -0.095,0.36492 -0.17381,0.73443 -0.28492,1.09476 -0.0378,0.12249 -0.26858,0.43216 -0.32605,0.50409 -0.36503,0.45689 -0.80211,0.84345 -1.2299,1.23923 -1.54228,1.37136 -3.07547,2.75296 -4.62776,4.11306 -1.10206,0.96312 -2.19967,1.93188 -3.23258,2.96941 -0.3672,0.34849 -0.67729,0.74831 -0.9971,1.13868 -0.11379,0.13227 -0.053,0.0696 -0.18243,0.18795 0,0 0.15715,-0.98237 0.15715,-0.98237 v 0 c 0.11791,-0.1213 0.0609,-0.0582 0.17101,-0.18935 0.31798,-0.38913 0.63998,-0.7758 1.00477,-1.12288 1.03705,-1.02716 2.13542,-1.9885 3.2354,-2.94734 1.5557,-1.36052 3.09235,-2.74264 4.62691,-4.12689 0.42388,-0.39901 0.85959,-0.78859 1.21108,-1.25603 0.0703,-0.0934 0.13519,-0.19119 0.19375,-0.2924 0.0412,-0.0712 0.11712,-0.30477 0.10471,-0.22346 -0.0424,0.27755 -0.13043,0.54618 -0.19564,0.81926 z" />
      <path
         style="fill:#1a1a1a;stroke-width:0;stroke-linejoin:round"
         id="path7-1-5-6"
         d="m 103.32069,128.30501 c 0.13882,0.14448 0.17195,0.32908 0.11674,0.52231 -0.34949,1.22332 -0.21968,0.90803 -0.57724,1.63492 -0.48129,0.9676 -1.01644,1.90587 -1.56523,2.83624 -0.0602,0.10832 -0.12532,0.21401 -0.18049,0.32496 -0.0727,0.14632 -0.52679,1.34344 0.10437,-0.50041 0.01,-0.0278 -0.005,0.0667 0.0161,0.0867 0.0244,0.023 0.0651,0.0222 0.0986,0.0201 0.13539,-0.008 0.26917,-0.0339 0.40375,-0.0508 1.15315,-0.23432 2.29433,-0.5191 3.45064,-0.73816 0,0 -0.21076,0.95493 -0.21076,0.95493 v 0 c -1.16031,0.21212 -2.30518,0.49167 -3.45761,0.74186 -0.12363,0.015 -0.45998,0.10866 -0.62526,0.007 -0.0394,-0.0242 -0.086,-0.0695 -0.0776,-0.11496 0.12303,-0.668 0.27399,-1.15924 0.60742,-1.70506 0.54987,-0.92889 1.08122,-1.86866 1.5572,-2.83807 0.30843,-0.64915 0.17723,-0.45531 0.0578,0.24898 -0.0106,0.0626 0.0412,-0.12079 0.052,-0.18342 0.0137,-0.0797 0.008,-0.1589 -0.0277,-0.23174 -0.0125,-0.0252 -0.0337,-0.045 -0.051,-0.0671 z" />
      <path
         style="fill:#1a1a1a;stroke-width:0;stroke-linejoin:round"
         id="path6-6-6-0-7"
         d="m 113.69389,164.50817 c -0.095,0.36492 -0.17381,0.73443 -0.28492,1.09476 -0.0378,0.12249 -0.26858,0.43216 -0.32605,0.50409 -0.36503,0.45689 -0.80211,0.84345 -1.2299,1.23923 -1.54228,1.37136 -3.07547,2.75296 -4.62776,4.11306 -1.10206,0.96312 -2.19967,1.93188 -3.23258,2.96941 -0.3672,0.34849 -0.67729,0.74831 -0.9971,1.13868 -0.11379,0.13227 -0.053,0.0696 -0.18243,0.18795 0,0 0.15715,-0.98237 0.15715,-0.98237 v 0 c 0.11791,-0.1213 0.0609,-0.0582 0.17101,-0.18935 0.31798,-0.38913 0.63998,-0.7758 1.00477,-1.12288 1.03705,-1.02716 2.13542,-1.9885 3.2354,-2.94734 1.5557,-1.36052 3.09235,-2.74264 4.62691,-4.12689 0.42388,-0.39901 0.85959,-0.78859 1.21108,-1.25603 0.0703,-0.0934 0.13519,-0.19119 0.19375,-0.2924 0.0412,-0.0712 0.11712,-0.30477 0.10471,-0.22346 -0.0424,0.27755 -0.13043,0.54618 -0.19564,0.81926 z" />
      <path
         style="fill:#1a1a1a;stroke-width:0;stroke-linejoin:round"
         id="path7-1-5-6-2"
         d="m 103.32069,171.46845 c 0.13882,0.14448 0.17195,0.32908 0.11674,0.52231 -0.34949,1.22332 -0.21968,0.90803 -0.57724,1.63492 -0.48129,0.9676 -1.01644,1.90587 -1.56523,2.83624 -0.0602,0.10832 -0.12532,0.21401 -0.18049,0.32496 -0.0727,0.14632 -0.52679,1.34344 0.10437,-0.50041 0.01,-0.0278 -0.005,0.0667 0.0161,0.0867 0.0244,0.023 0.0651,0.0222 0.0986,0.0201 0.13539,-0.008 0.26917,-0.0339 0.40375,-0.0508 1.15315,-0.23432 2.29433,-0.5191 3.45064,-0.73816 0,0 -0.21076,0.95493 -0.21076,0.95493 v 0 c -1.16031,0.21212 -2.30518,0.49167 -3.45761,0.74186 -0.12363,0.015 -0.45998,0.10866 -0.62526,0.007 -0.0394,-0.0241 -0.086,-0.0695 -0.0776,-0.11496 0.12303,-0.668 0.27399,-1.15924 0.60742,-1.70506 0.54987,-0.92889 1.08122,-1.86866 1.5572,-2.83807 0.30843,-0.64915 0.17723,-0.45531 0.0578,0.24898 -0.0106,0.0626 0.0412,-0.12079 0.052,-0.18342 0.0137,-0.0797 0.008,-0.1589 -0.0277,-0.23174 -0.0125,-0.0252 -0.0337,-0.045 -0.051,-0.0671 z" />
      <path
         style="fill:#1a1a1a;stroke-width:0;stroke-linejoin:round"
         id="path6-6-6-0-7-3"
         d="m 145.64779,164.09472 c 0.095,0.36493 0.17382,0.73443 0.28493,1.09477 0.0378,0.12249 0.26857,0.43215 0.32604,0.50408 0.36504,0.45689 0.80212,0.84346 1.2299,1.23924 1.54229,1.37136 3.07548,2.75296 4.62777,4.11306 1.10205,0.96312 2.19966,1.93188 3.23257,2.9694 0.3672,0.34849 0.6773,0.74832 0.99711,1.13869 0.11378,0.13227 0.053,0.0696 0.18243,0.18795 0,0 -0.15715,-0.98237 -0.15715,-0.98237 v 0 c -0.11791,-0.1213 -0.0609,-0.0582 -0.17102,-0.18935 -0.31798,-0.38913 -0.63998,-0.77581 -1.00476,-1.12288 -1.03706,-1.02716 -2.13542,-1.9885 -3.2354,-2.94735 -1.5557,-1.36052 -3.09236,-2.74263 -4.62691,-4.12688 -0.42389,-0.39901 -0.8596,-0.78859 -1.21109,-1.25603 -0.0703,-0.0934 -0.13519,-0.19119 -0.19374,-0.2924 -0.0412,-0.0712 -0.11712,-0.30477 -0.10471,-0.22346 0.0423,0.27755 0.13042,0.54618 0.19563,0.81926 z" />
      <path
         style="fill:#1a1a1a;stroke-width:0;stroke-linejoin:round"
         id="path7-1-5-6-2-8"
         d="m 156.021,171.05501 c -0.13882,0.14448 -0.17195,0.32908 -0.11675,0.52231 0.34949,1.22331 0.21969,0.90803 0.57725,1.63491 0.48129,0.9676 1.01644,1.90588 1.56522,2.83625 0.0602,0.10832 0.12533,0.21401 0.1805,0.32496 0.0727,0.14631 0.52679,1.34343 -0.10437,-0.50041 -0.01,-0.0278 0.005,0.0667 -0.0161,0.0867 -0.0244,0.023 -0.0651,0.0222 -0.0986,0.0201 -0.1354,-0.008 -0.26917,-0.0339 -0.40375,-0.0508 -1.15315,-0.23433 -2.29434,-0.51911 -3.45064,-0.73817 0,0 0.21075,0.95494 0.21075,0.95494 v 0 c 1.16032,0.21211 2.30519,0.49167 3.45762,0.74186 0.12363,0.015 0.45997,0.10866 0.62525,0.007 0.0394,-0.0242 0.086,-0.0695 0.0776,-0.11496 -0.12303,-0.668 -0.27398,-1.15924 -0.60741,-1.70507 -0.54987,-0.92888 -1.08123,-1.86865 -1.5572,-2.83806 -0.30843,-0.64915 -0.17724,-0.45532 -0.0578,0.24898 0.0106,0.0626 -0.0412,-0.1208 -0.052,-0.18343 -0.0137,-0.0797 -0.008,-0.15889 0.0277,-0.23173 0.0125,-0.0252 0.0337,-0.045 0.051,-0.0671 z" />
      <text
         xml:space="preserve"
         style="font-size:3.52777px;line-height:1.3;font-family:Arial;-inkscape-font-specification:Arial;text-align:center;writing-mode:lr-tb;direction:ltr;text-anchor:middle;fill:#1a1a1a;stroke-width:0;stroke-linejoin:round"
         x="56.261673"
         y="61.805931"
         id="text17"><tspan
           sodipodi:role="line"
           id="tspan17"
           style="stroke-width:0"
           x="56.261673"
           y="61.805931">string</tspan></text>
      <text
         xml:space="preserve"
         style="font-size:3.52777px;line-height:1.3;font-family:Arial;-inkscape-font-specification:Arial;text-align:center;writing-mode:lr-tb;direction:ltr;text-anchor:middle;fill:#1a1a1a;stroke-width:0;stroke-linejoin:round"
         x="100.83968"
         y="62.745396"
         id="text17-6"><tspan
           sodipodi:role="line"
           id="tspan17-1"
           style="stroke-width:0"
           x="100.83968"
           y="62.745396">string</tspan></text>
      <text
         xml:space="preserve"
         style="font-size:3.52777px;line-height:1.3;font-family:Arial;-inkscape-font-specification:Arial;text-align:center;writing-mode:lr-tb;direction:ltr;text-anchor:middle;fill:#1a1a1a;stroke-width:0;stroke-linejoin:round"
         x="109.70521"
         y="88.87233"
         id="text17-0"><tspan
           sodipodi:role="line"
           id="tspan17-9"
           style="stroke-width:0"
           x="109.70521"
           y="88.87233">string</tspan></text>
      <text
         xml:space="preserve"
         style="font-size:3.52777px;line-height:1.3;font-family:Arial;-inkscape-font-specification:Arial;text-align:center;writing-mode:lr-tb;direction:ltr;text-anchor:middle;fill:#1a1a1a;stroke-width:0;stroke-linejoin:round"
         x="101.14942"
         y="105.66422"
         id="text17-1"><tspan
           sodipodi:role="line"
           id="tspan17-5"
           style="stroke-width:0"
           x="101.14942"
           y="105.66422">string</tspan></text>
      <path
         style="fill:#1a1a1a;stroke-width:0;stroke-linejoin:round"
         id="path6-6-5-3"
         d="m 96.2901,148.71672 c 0.3252,0.19088 0.64223,0.39641 0.97559,0.57264 0.11332,0.0599 0.49549,0.11567 0.58699,0.12589 0.58119,0.0649 1.16359,0.0292 1.74594,0.007 2.06026,-0.12086 4.12133,-0.22805 6.1807,-0.36395 1.4603,-0.0982 2.92144,-0.18935 4.38546,-0.18609 0.50607,-0.0132 1.00806,0.0502 1.51023,0.10011 0.17399,0.0131 0.0867,0.0117 0.2619,0.004 0,0 -0.80576,-0.58351 -0.80576,-0.58351 v 0 c -0.16915,-0.002 -0.0842,0.002 -0.25482,-0.013 -0.5,-0.0503 -1.00111,-0.096 -1.50447,-0.0835 -1.45962,0.007 -2.91605,0.10389 -4.37186,0.20369 -2.06208,0.13801 -4.12596,0.24729 -6.18987,0.35357 -0.58187,0.0176 -1.16544,0.0502 -1.74451,-0.0318 -0.11577,-0.0164 -0.23079,-0.0396 -0.34376,-0.0698 -0.0795,-0.0212 -0.29832,-0.13269 -0.23205,-0.084 0.22621,0.16631 0.47843,0.29398 0.71764,0.44097 z" />
      <path
         style="fill:#1a1a1a;stroke-width:0;stroke-linejoin:round"
         id="path7-1-2-38"
         d="m 108.54673,146.30341 c 0.004,0.20033 0.11111,0.35429 0.28678,0.45189 1.11214,0.61788 0.79741,0.48673 1.56423,0.74788 1.02452,0.34388 2.06639,0.62893 3.11231,0.89875 0.11914,0.0341 0.23995,0.0627 0.35741,0.10215 0.1549,0.052 1.32245,0.57746 -0.42764,-0.28004 -0.0264,-0.0129 0.051,0.0433 0.0499,0.0727 -0.001,0.0335 -0.0303,0.0618 -0.0555,0.084 -0.10158,0.0899 -0.21428,0.16638 -0.32142,0.24957 -0.98109,0.64971 -1.9894,1.25528 -2.96193,1.91801 0,0 0.82427,0.52622 0.82427,0.52622 v 0 c 0.97045,-0.67048 1.97767,-1.28235 2.96947,-1.92034 0.098,-0.0768 0.40209,-0.24841 0.44741,-0.43683 0.0108,-0.045 0.0117,-0.10995 -0.0264,-0.13618 -0.55934,-0.38535 -1.01344,-0.62598 -1.63517,-0.77616 -1.04564,-0.26801 -2.08588,-0.5568 -3.10792,-0.90571 -0.67711,-0.24092 -0.44728,-0.19663 0.13517,0.21694 0.0518,0.0368 -0.11452,-0.0563 -0.16644,-0.093 -0.0661,-0.0467 -0.11826,-0.10645 -0.14426,-0.18346 -0.009,-0.0266 -0.008,-0.0556 -0.0114,-0.0835 z" />
      <text
         xml:space="preserve"
         style="font-size:3.52777px;line-height:1.3;font-family:Arial;-inkscape-font-specification:Arial;text-align:center;writing-mode:lr-tb;direction:ltr;text-anchor:middle;fill:#1a1a1a;stroke-width:0;stroke-linejoin:round"
         x="100.55698"
         y="147.83623"
         id="text17-1-6"><tspan
           sodipodi:role="line"
           id="tspan17-5-0"
           style="stroke-width:0"
           x="100.55698"
           y="147.83623">string</tspan></text>
      <path
         style="fill:#1a1a1a;stroke-width:0;stroke-linejoin:round"
         id="path6-6-5-8"
         d="m 97.58564,192.94505 c 0.3252,0.19089 0.64223,0.39642 0.97559,0.57265 0.11332,0.0599 0.49549,0.11567 0.58699,0.12589 0.58119,0.065 1.16359,0.0292 1.74594,0.007 2.06026,-0.12086 4.12133,-0.22805 6.1807,-0.36395 1.4603,-0.0982 2.92144,-0.18935 4.38546,-0.18609 0.50607,-0.0132 1.00806,0.0502 1.51023,0.10011 0.17399,0.0131 0.0867,0.0117 0.2619,0.004 0,0 -0.80576,-0.58351 -0.80576,-0.58351 v 0 c -0.16915,-0.002 -0.0842,0.002 -0.25482,-0.013 -0.5,-0.0503 -1.00111,-0.096 -1.50447,-0.0835 -1.45962,0.007 -2.91605,0.10389 -4.37186,0.20369 -2.06208,0.13801 -4.12596,0.24729 -6.18987,0.35357 -0.58187,0.0176 -1.16544,0.0502 -1.74451,-0.0318 -0.11577,-0.0164 -0.23079,-0.0396 -0.34376,-0.0698 -0.0795,-0.0212 -0.29832,-0.13269 -0.23205,-0.084 0.22621,0.16631 0.47843,0.29398 0.71764,0.44097 z" />
      <path
         style="fill:#1a1a1a;stroke-width:0;stroke-linejoin:round"
         id="path7-1-2-3"
         d="m 109.84227,190.53175 c 0.004,0.20033 0.11111,0.35429 0.28678,0.45189 1.11214,0.61788 0.79741,0.48673 1.56423,0.74788 1.02452,0.34388 2.06639,0.62893 3.11231,0.89875 0.11914,0.0341 0.23995,0.0627 0.35741,0.10215 0.1549,0.052 1.32245,0.57745 -0.42764,-0.28004 -0.0264,-0.0129 0.051,0.0433 0.0499,0.0727 -10e-4,0.0335 -0.0303,0.0617 -0.0555,0.084 -0.10158,0.0899 -0.21428,0.16638 -0.32142,0.24957 -0.98109,0.6497 -1.9894,1.25527 -2.96193,1.91801 0,0 0.82427,0.52621 0.82427,0.52621 v 0 c 0.97045,-0.67047 1.97767,-1.28234 2.96947,-1.92033 0.098,-0.0768 0.40209,-0.24841 0.44741,-0.43684 0.0108,-0.045 0.0117,-0.10994 -0.0264,-0.13618 -0.55934,-0.38535 -1.01344,-0.62597 -1.63517,-0.77615 -1.04564,-0.26801 -2.08588,-0.5568 -3.10792,-0.90571 -0.67711,-0.24092 -0.44728,-0.19664 0.13517,0.21694 0.0518,0.0368 -0.11452,-0.0563 -0.16644,-0.093 -0.0661,-0.0467 -0.11826,-0.10645 -0.14426,-0.18346 -0.009,-0.0266 -0.008,-0.0556 -0.0114,-0.0835 z" />
      <text
         xml:space="preserve"
         style="font-size:3.52777px;line-height:1.3;font-family:Arial;-inkscape-font-specification:Arial;text-align:center;writing-mode:lr-tb;direction:ltr;text-anchor:middle;fill:#1a1a1a;stroke-width:0;stroke-linejoin:round"
         x="101.85252"
         y="192.06454"
         id="text17-1-1"><tspan
           sodipodi:role="line"
           id="tspan17-5-8"
           style="stroke-width:0"
           x="101.85252"
           y="192.06454">string</tspan></text>
      <text
         xml:space="preserve"
         style="font-size:3.52777px;line-height:1.3;font-family:Arial;-inkscape-font-specification:Arial;text-align:center;writing-mode:lr-tb;direction:ltr;text-anchor:middle;fill:#1a1a1a;stroke-width:0;stroke-linejoin:round"
         x="110.40982"
         y="132.05927"
         id="text17-7"><tspan
           sodipodi:role="line"
           id="tspan17-3"
           style="stroke-width:0"
           x="110.40982"
           y="132.05927">string</tspan></text>
      <text
         xml:space="preserve"
         style="font-size:3.52777px;line-height:1.3;font-family:Arial;-inkscape-font-specification:Arial;text-align:center;writing-mode:lr-tb;direction:ltr;text-anchor:middle;fill:#1a1a1a;stroke-width:0;stroke-linejoin:round"
         x="110.40984"
         y="175.32468"
         id="text17-9"><tspan
           sodipodi:role="line"
           id="tspan17-4"
           style="stroke-width:0"
           x="110.40984"
           y="175.32468">yes?</tspan></text>
      <text
         xml:space="preserve"
         style="font-size:3.52777px;line-height:1.3;font-family:Arial;-inkscape-font-specification:Arial;text-align:center;writing-mode:lr-tb;direction:ltr;text-anchor:middle;fill:#1a1a1a;stroke-width:0;stroke-linejoin:round"
         x="149.86755"
         y="175.67522"
         id="text17-9-5"><tspan
           sodipodi:role="line"
           id="tspan17-4-9"
           style="stroke-width:0"
           x="149.86755"
           y="175.67522">no?</tspan></text>
    </g>
  </g>
</svg>
